<svg width="1075" height="200" viewBox="0 0 1075 200" fill="none" xmlns="http://www.w3.org/2000/svg">
<path d="M427.82 132.76L444.432 110.124L427.82 87.4883H441.146L452.191 103.096H452.556L463.6 87.4883H476.835L460.223 110.124L476.835 132.76H463.6L452.556 117.152H452.191L441.146 132.76H427.82Z" fill="#031223"/>
<path d="M405.063 133.855C400.439 133.855 396.331 132.882 392.741 130.935C389.212 128.987 386.443 126.249 384.435 122.72C382.427 119.191 381.423 115.144 381.423 110.58C381.423 105.834 382.397 101.666 384.344 98.0757C386.352 94.4247 389.121 91.5648 392.65 89.4959C396.24 87.427 400.378 86.3926 405.063 86.3926C409.627 86.3926 413.613 87.3662 417.02 89.3134C420.428 91.2605 423.105 93.9379 425.053 97.3455C427 100.692 427.973 104.495 427.973 108.755C427.973 109.363 427.943 110.063 427.882 110.854C427.882 111.584 427.852 112.345 427.791 113.136H390.186V105.56H415.469C415.286 102.7 414.221 100.418 412.274 98.7146C410.388 97.0108 408.015 96.1589 405.155 96.1589C403.025 96.1589 401.078 96.6457 399.313 97.6193C397.548 98.5321 396.149 99.962 395.115 101.909C394.08 103.796 393.563 106.199 393.563 109.12V111.767C393.563 114.262 394.05 116.422 395.023 118.247C395.997 120.012 397.336 121.381 399.039 122.355C400.804 123.328 402.782 123.815 404.972 123.815C407.224 123.815 409.11 123.328 410.631 122.355C412.152 121.32 413.309 120.012 414.1 118.43H426.604C425.752 121.29 424.322 123.906 422.314 126.28C420.306 128.592 417.842 130.448 414.921 131.847C412 133.186 408.714 133.855 405.063 133.855Z" fill="#031223"/>
<path d="M362.748 132.759V68.8672H375.07V132.759H362.748Z" fill="#031223"/>
<path d="M331.771 152.11C327.451 152.11 323.648 151.593 320.362 150.558C317.137 149.524 314.612 147.972 312.786 145.903C311.021 143.895 310.139 141.461 310.139 138.601C310.139 136.471 310.687 134.524 311.782 132.76C312.877 130.934 314.49 129.291 316.62 127.831C318.749 126.31 321.366 125.001 324.469 123.906L328.942 130.021C326.264 130.934 324.317 132.029 323.1 133.307C321.883 134.585 321.275 136.046 321.275 137.688C321.275 138.905 321.701 139.94 322.552 140.792C323.465 141.644 324.713 142.283 326.295 142.709C327.877 143.195 329.702 143.439 331.771 143.439C333.84 143.439 335.574 143.195 336.974 142.709C338.373 142.222 339.438 141.522 340.168 140.609C340.899 139.757 341.264 138.753 341.264 137.597C341.264 135.954 340.686 134.676 339.53 133.764C338.373 132.912 336.122 132.364 332.775 132.121C329.672 131.877 326.934 131.543 324.561 131.117C322.187 130.63 320.088 130.082 318.263 129.474C316.498 128.804 314.977 128.074 313.699 127.283C312.421 126.492 311.387 125.701 310.596 124.91V122.811L320.362 112.771L327.573 115.509L317.715 126.462L321.001 120.985C321.609 121.229 322.248 121.472 322.918 121.715C323.587 121.959 324.408 122.202 325.382 122.446C326.416 122.689 327.694 122.932 329.216 123.176C330.798 123.358 332.775 123.571 335.148 123.815C339.164 124.119 342.45 124.819 345.006 125.914C347.562 127.009 349.448 128.5 350.665 130.386C351.882 132.273 352.491 134.585 352.491 137.323C352.491 139.696 351.73 142.009 350.209 144.26C348.748 146.572 346.497 148.459 343.454 149.919C340.412 151.38 336.517 152.11 331.771 152.11ZM331.862 119.342C328.029 119.342 324.713 118.612 321.914 117.152C319.175 115.691 317.046 113.714 315.524 111.219C314.064 108.724 313.334 105.955 313.334 102.913C313.334 99.8704 314.064 97.1017 315.524 94.6069C317.046 92.1121 319.175 90.1345 321.914 88.6741C324.713 87.1528 328.029 86.3922 331.862 86.3922C335.696 86.3922 338.982 87.1528 341.72 88.6741C344.519 90.1345 346.649 92.1121 348.109 94.6069C349.57 97.1017 350.3 99.8704 350.3 102.913C350.3 105.955 349.57 108.724 348.109 111.219C346.649 113.714 344.519 115.691 341.72 117.152C338.982 118.612 335.696 119.342 331.862 119.342ZM331.771 110.397C334.205 110.397 336.152 109.789 337.613 108.572C339.134 107.294 339.895 105.408 339.895 102.913C339.895 100.418 339.134 98.5621 337.613 97.3451C336.152 96.0673 334.236 95.4284 331.862 95.4284C329.428 95.4284 327.451 96.0673 325.93 97.3451C324.469 98.5621 323.739 100.418 323.739 102.913C323.739 105.408 324.469 107.294 325.93 108.572C327.451 109.789 329.398 110.397 331.771 110.397ZM343.954 100.974L336.661 96.5202L350.085 83.0957L354.797 87.8072L343.954 100.974Z" fill="#031223"/>
<path d="M275.876 133.856C272.164 133.856 269 133.065 266.384 131.483C263.767 129.9 261.759 127.558 260.36 124.454C258.96 121.29 258.26 117.426 258.26 112.863V87.4883H270.491V111.767C270.491 115.54 271.252 118.43 272.773 120.438C274.355 122.446 276.789 123.45 280.075 123.45C282.205 123.45 284.06 122.964 285.643 121.99C287.286 120.956 288.563 119.495 289.476 117.609C290.389 115.723 290.845 113.471 290.845 110.855V87.4883H303.167V132.76H292.671L291.575 125.55H291.21C289.811 128.105 287.833 130.144 285.277 131.665C282.783 133.126 279.649 133.856 275.876 133.856Z" fill="#031223"/>
<path d="M220.483 133.855C214.398 133.855 209.104 132.516 204.602 129.839C200.099 127.101 196.6 123.298 194.105 118.43C191.61 113.501 190.363 107.781 190.363 101.27C190.363 94.6984 191.641 88.9177 194.196 83.928C196.752 78.8775 200.433 74.9223 205.241 72.0624C210.048 69.2024 215.798 67.7725 222.491 67.7725C229.976 67.7725 236.183 69.5675 241.111 73.1576C246.101 76.7478 249.326 81.7375 250.786 88.1267H237.004C236.091 85.3276 234.388 83.137 231.893 81.5549C229.459 79.912 226.295 79.0905 222.4 79.0905C218.262 79.0905 214.733 80.0032 211.812 81.8287C208.892 83.6542 206.67 86.2099 205.149 89.4958C203.628 92.7817 202.867 96.7065 202.867 101.27C202.867 105.895 203.628 109.82 205.149 113.045C206.67 116.27 208.831 118.734 211.63 120.438C214.49 122.081 217.836 122.902 221.67 122.902C227.268 122.902 231.497 121.411 234.357 118.43C237.278 115.387 239.012 111.462 239.56 106.655H223.861V97.4367H251.973V132.76H242.754L241.933 124.18C239.765 126.873 233.946 131.145 228.698 132.76C226.53 133.427 223.587 133.855 220.483 133.855Z" fill="#031223"/>
<path d="M1015.55 133.855C1011.54 133.855 1007.98 133.186 1004.87 131.847C1001.83 130.509 999.366 128.683 997.48 126.371C995.654 123.998 994.589 121.32 994.285 118.339H1006.61C1006.85 119.434 1007.34 120.468 1008.07 121.442C1008.8 122.416 1009.77 123.207 1010.99 123.815C1012.27 124.363 1013.73 124.637 1015.37 124.637C1017.07 124.637 1018.44 124.424 1019.48 123.998C1020.51 123.511 1021.27 122.902 1021.76 122.172C1022.31 121.442 1022.58 120.651 1022.58 119.799C1022.58 118.643 1022.18 117.761 1021.39 117.152C1020.66 116.483 1019.57 115.905 1018.11 115.418C1016.71 114.931 1015.03 114.414 1013.09 113.866C1011.08 113.319 1009.04 112.74 1006.97 112.132C1004.96 111.523 1003.11 110.763 1001.4 109.85C999.701 108.877 998.332 107.66 997.297 106.199C996.324 104.678 995.837 102.792 995.837 100.54C995.837 97.9236 996.567 95.5504 998.027 93.4207C999.488 91.291 1001.59 89.5872 1004.33 88.3093C1007.12 87.0315 1010.44 86.3926 1014.27 86.3926C1019.75 86.3926 1024.1 87.64 1027.33 90.1348C1030.61 92.6297 1032.53 96.0677 1033.08 100.449H1021.48C1021.18 98.9276 1020.39 97.741 1019.11 96.8891C1017.89 96.0372 1016.28 95.6113 1014.27 95.6113C1012.14 95.6113 1010.5 96.0372 1009.35 96.8891C1008.25 97.6802 1007.7 98.6538 1007.7 99.8099C1007.7 100.662 1008.07 101.392 1008.8 102.001C1009.53 102.548 1010.59 103.065 1011.99 103.552C1013.45 103.978 1015.19 104.465 1017.2 105.013C1020.42 105.864 1023.37 106.777 1026.05 107.751C1028.73 108.724 1030.86 110.063 1032.44 111.767C1034.02 113.41 1034.81 115.753 1034.81 118.795C1034.87 121.716 1034.11 124.302 1032.53 126.553C1030.95 128.805 1028.73 130.6 1025.87 131.939C1023.01 133.216 1019.57 133.855 1015.55 133.855Z" fill="#031223"/>
<path d="M968.209 133.855C963.584 133.855 959.477 132.882 955.887 130.935C952.358 128.987 949.589 126.249 947.581 122.72C945.573 119.191 944.569 115.144 944.569 110.58C944.569 105.834 945.542 101.666 947.49 98.0757C949.498 94.4247 952.266 91.5648 955.796 89.4959C959.386 87.427 963.524 86.3926 968.209 86.3926C972.773 86.3926 976.758 87.3662 980.166 89.3134C983.573 91.2605 986.251 93.9379 988.198 97.3455C990.145 100.692 991.119 104.495 991.119 108.755C991.119 109.363 991.088 110.063 991.028 110.854C991.028 111.584 990.997 112.345 990.936 113.136H953.331V105.56H978.614C978.432 102.7 977.367 100.418 975.42 98.7146C973.533 97.0108 971.16 96.1589 968.3 96.1589C966.17 96.1589 964.223 96.6457 962.459 97.6193C960.694 98.5321 959.294 99.962 958.26 101.909C957.226 103.796 956.708 106.199 956.708 109.12V111.767C956.708 114.262 957.195 116.422 958.169 118.247C959.142 120.012 960.481 121.381 962.185 122.355C963.949 123.328 965.927 123.815 968.118 123.815C970.369 123.815 972.255 123.328 973.777 122.355C975.298 121.32 976.454 120.012 977.245 118.43H989.75C988.898 121.29 987.468 123.906 985.46 126.28C983.452 128.592 980.987 130.448 978.067 131.847C975.146 133.186 971.86 133.855 968.209 133.855Z" fill="#031223"/>
<path d="M924.847 132.76V87.4877H937.169V132.76H924.847ZM931.054 81.7375C928.802 81.7375 926.946 81.0985 925.486 79.8207C924.087 78.482 923.387 76.8086 923.387 74.8006C923.387 72.7926 924.087 71.1192 925.486 69.7805C926.946 68.4418 928.802 67.7725 931.054 67.7725C933.305 67.7725 935.131 68.4418 936.53 69.7805C937.93 71.1192 938.63 72.7926 938.63 74.8006C938.63 76.7478 937.93 78.3907 936.53 79.7294C935.131 81.0681 933.305 81.7375 931.054 81.7375Z" fill="#031223"/>
<path d="M892.902 152.11C888.581 152.11 884.778 151.593 881.492 150.558C878.267 149.524 875.742 147.972 873.916 145.903C872.152 143.895 871.27 141.461 871.27 138.601C871.27 136.471 871.817 134.524 872.912 132.76C874.008 130.934 875.62 129.291 877.75 127.831C879.88 126.31 882.496 125.001 885.6 123.906L890.072 130.021C887.395 130.934 885.447 132.029 884.231 133.307C883.014 134.585 882.405 136.046 882.405 137.688C882.405 138.905 882.831 139.94 883.683 140.792C884.596 141.644 885.843 142.283 887.425 142.709C889.007 143.195 890.833 143.439 892.902 143.439C894.97 143.439 896.705 143.195 898.104 142.709C899.504 142.222 900.569 141.522 901.299 140.609C902.029 139.757 902.394 138.753 902.394 137.597C902.394 135.954 901.816 134.676 900.66 133.764C899.504 132.912 897.252 132.364 893.906 132.121C890.802 131.877 888.064 131.543 885.691 131.117C883.318 130.63 881.218 130.082 879.393 129.474C877.628 128.804 876.107 128.074 874.829 127.283C873.551 126.492 872.517 125.701 871.726 124.91V122.811L881.492 112.771L888.703 115.509L878.845 126.462L882.131 120.985C882.74 121.229 883.379 121.472 884.048 121.715C884.717 121.959 885.539 122.202 886.512 122.446C887.547 122.689 888.825 122.932 890.346 123.176C891.928 123.358 893.906 123.571 896.279 123.815C900.295 124.119 903.581 124.819 906.136 125.914C908.692 127.009 910.578 128.5 911.795 130.386C913.012 132.273 913.621 134.585 913.621 137.323C913.621 139.696 912.86 142.009 911.339 144.26C909.879 146.572 907.627 148.459 904.585 149.919C901.542 151.38 897.648 152.11 892.902 152.11ZM892.993 119.342C889.159 119.342 885.843 118.612 883.044 117.152C880.306 115.691 878.176 113.714 876.655 111.219C875.194 108.724 874.464 105.955 874.464 102.913C874.464 99.8704 875.194 97.1017 876.655 94.6069C878.176 92.1121 880.306 90.1345 883.044 88.6741C885.843 87.1528 889.159 86.3922 892.993 86.3922C896.826 86.3922 900.112 87.1528 902.85 88.6741C905.65 90.1345 907.779 92.1121 909.24 94.6069C910.7 97.1017 911.43 99.8704 911.43 102.913C911.43 105.955 910.7 108.724 909.24 111.219C907.779 113.714 905.65 115.691 902.85 117.152C900.112 118.612 896.826 119.342 892.993 119.342ZM892.902 110.397C895.336 110.397 897.283 109.789 898.743 108.572C900.264 107.294 901.025 105.408 901.025 102.913C901.025 100.418 900.264 98.5621 898.743 97.3451C897.283 96.0673 895.366 95.4284 892.993 95.4284C890.559 95.4284 888.581 96.0673 887.06 97.3451C885.6 98.5621 884.869 100.418 884.869 102.913C884.869 105.408 885.6 107.294 887.06 108.572C888.581 109.789 890.528 110.397 892.902 110.397ZM905.084 100.974L897.791 96.5202L911.216 83.0957L915.927 87.8072L905.084 100.974Z" fill="#031223"/>
<path d="M842.431 133.855C838.05 133.855 834.094 132.851 830.565 130.843C827.036 128.835 824.237 126.036 822.168 122.446C820.16 118.856 819.156 114.749 819.156 110.124C819.156 105.439 820.19 101.331 822.259 97.8019C824.328 94.2118 827.127 91.4127 830.656 89.4046C834.186 87.3966 838.11 86.3926 842.431 86.3926C846.812 86.3926 850.767 87.3966 854.296 89.4046C857.826 91.4127 860.594 94.2118 862.602 97.8019C864.671 101.331 865.706 105.439 865.706 110.124C865.706 114.809 864.671 118.947 862.602 122.537C860.533 126.067 857.734 128.835 854.205 130.843C850.737 132.851 846.812 133.855 842.431 133.855ZM842.339 123.45C844.348 123.45 846.143 122.963 847.725 121.99C849.368 121.016 850.676 119.556 851.649 117.608C852.623 115.6 853.11 113.106 853.11 110.124C853.11 107.142 852.623 104.678 851.649 102.731C850.676 100.723 849.368 99.2318 847.725 98.2583C846.143 97.2847 844.408 96.7979 842.522 96.7979C840.575 96.7979 838.78 97.2847 837.137 98.2583C835.494 99.2318 834.186 100.723 833.212 102.731C832.238 104.678 831.752 107.142 831.752 110.124C831.752 113.106 832.238 115.6 833.212 117.608C834.186 119.556 835.463 121.016 837.046 121.99C838.688 122.963 840.453 123.45 842.339 123.45Z" fill="#031223"/>
<path d="M800.48 132.759V68.8672H812.803V132.759H800.48Z" fill="#031223"/>
<path d="M770.855 133.855C766.474 133.855 762.519 132.851 758.989 130.843C755.46 128.835 752.661 126.036 750.592 122.446C748.584 118.856 747.58 114.749 747.58 110.124C747.58 105.439 748.614 101.331 750.683 97.8019C752.752 94.2118 755.551 91.4127 759.081 89.4046C762.61 87.3966 766.535 86.3926 770.855 86.3926C775.236 86.3926 779.191 87.3966 782.721 89.4046C786.25 91.4127 789.019 94.2118 791.027 97.8019C793.096 101.331 794.13 105.439 794.13 110.124C794.13 114.809 793.096 118.947 791.027 122.537C788.958 126.067 786.159 128.835 782.629 130.843C779.161 132.851 775.236 133.855 770.855 133.855ZM770.764 123.45C772.772 123.45 774.567 122.963 776.149 121.99C777.792 121.016 779.1 119.556 780.074 117.608C781.047 115.6 781.534 113.106 781.534 110.124C781.534 107.142 781.047 104.678 780.074 102.731C779.1 100.723 777.792 99.2318 776.149 98.2583C774.567 97.2847 772.833 96.7979 770.946 96.7979C768.999 96.7979 767.204 97.2847 765.561 98.2583C763.918 99.2318 762.61 100.723 761.636 102.731C760.663 104.678 760.176 107.142 760.176 110.124C760.176 113.106 760.663 115.6 761.636 117.608C762.61 119.556 763.888 121.016 765.47 121.99C767.113 122.963 768.877 123.45 770.764 123.45Z" fill="#031223"/>
<path d="M697.162 132.76V87.4879H707.658L708.753 94.8811H709.119C710.579 92.2037 712.557 90.1348 715.051 88.6744C717.546 87.1532 720.68 86.3926 724.453 86.3926C728.225 86.3926 731.42 87.214 734.036 88.857C736.653 90.4391 738.631 92.7818 739.969 95.8851C741.369 98.9885 742.069 102.822 742.069 107.386V132.76H729.747V108.481C729.747 104.708 728.986 101.818 727.465 99.8099C725.943 97.8019 723.54 96.7979 720.254 96.7979C718.185 96.7979 716.329 97.3151 714.686 98.3495C713.043 99.3231 711.766 100.753 710.853 102.639C709.94 104.465 709.484 106.716 709.484 109.394V132.76H697.162Z" fill="#031223"/>
<path d="M645.385 132.759V68.8672H657.524V95.063H657.889C659.471 92.2639 661.54 90.1341 664.096 88.6737C666.652 87.1525 669.664 86.3919 673.132 86.3919C676.783 86.3919 679.887 87.2134 682.442 88.8563C684.998 90.4384 686.945 92.7811 688.284 95.8844C689.622 98.9878 690.292 102.821 690.292 107.385V132.759H678.061V108.48C678.061 104.708 677.3 101.817 675.779 99.8092C674.319 97.8012 671.946 96.7972 668.66 96.7972C666.53 96.7972 664.644 97.3144 663.001 98.3488C661.358 99.3224 660.05 100.752 659.076 102.639C658.163 104.464 657.707 106.716 657.707 109.393V132.759H645.385Z" fill="#031223"/>
<path d="M516.539 132.759V78.8161H497.828V68.8672H547.39V78.8161H528.77V132.759H516.539Z" fill="#031223"/>
<path d="M616.664 133.855C611.857 133.855 607.659 132.851 604.069 130.843C600.539 128.774 597.771 125.975 595.763 122.446C593.815 118.856 592.842 114.749 592.842 110.124C592.842 105.499 593.846 101.422 595.854 97.8932C597.862 94.303 600.661 91.5039 604.251 89.4959C607.841 87.427 611.979 86.3926 616.664 86.3926C622.506 86.3926 627.404 87.9138 631.36 90.9563C635.376 93.9988 637.931 98.1974 639.027 103.552H625.974C625.488 101.362 624.362 99.6578 622.597 98.4408C620.893 97.2238 618.885 96.6153 616.573 96.6153C614.443 96.6153 612.527 97.163 610.823 98.2583C609.18 99.2927 607.872 100.814 606.898 102.822C605.924 104.83 605.438 107.264 605.438 110.124C605.438 112.193 605.712 114.049 606.259 115.692C606.807 117.335 607.567 118.734 608.541 119.89C609.515 121.046 610.671 121.929 612.009 122.537C613.409 123.085 614.93 123.359 616.573 123.359C618.155 123.359 619.585 123.115 620.863 122.629C622.141 122.081 623.236 121.32 624.149 120.347C625.062 119.312 625.67 118.095 625.974 116.696H639.027C637.931 121.929 635.376 126.097 631.36 129.2C627.404 132.304 622.506 133.855 616.664 133.855Z" fill="#031223"/>
<path d="M565.853 133.855C561.228 133.855 557.121 132.882 553.531 130.935C550.002 128.987 547.233 126.249 545.225 122.72C543.217 119.191 542.213 115.144 542.213 110.58C542.213 105.834 543.186 101.666 545.134 98.0757C547.142 94.4247 549.91 91.5648 553.44 89.4959C557.03 87.427 561.168 86.3926 565.853 86.3926C570.417 86.3926 574.402 87.3662 577.81 89.3134C581.217 91.2605 583.895 93.9379 585.842 97.3455C587.789 100.692 588.763 104.495 588.763 108.755C588.763 109.363 588.732 110.063 588.672 110.854C588.672 111.584 588.641 112.345 588.58 113.136H550.975V105.56H576.258C576.076 102.7 575.011 100.418 573.064 98.7146C571.177 97.0108 568.804 96.1589 565.944 96.1589C563.814 96.1589 561.867 96.6457 560.103 97.6193C558.338 98.5321 556.938 99.962 555.904 101.909C554.87 103.796 554.352 106.199 554.352 109.12V111.767C554.352 114.262 554.839 116.422 555.813 118.247C556.786 120.012 558.125 121.381 559.829 122.355C561.594 123.328 563.571 123.815 565.762 123.815C568.013 123.815 569.899 123.328 571.421 122.355C572.942 121.32 574.098 120.012 574.889 118.43H587.394C586.542 121.29 585.112 123.906 583.104 126.28C581.096 128.592 578.631 130.448 575.711 131.847C572.79 133.186 569.504 133.855 565.853 133.855Z" fill="#031223"/>
<path d="M160.239 158.022C160.239 159.127 159.093 159.858 158.095 159.389L120.33 141.673V107.549C120.33 106.715 121.004 106.039 121.836 106.039H158.733C159.565 106.039 160.239 106.715 160.239 107.549V158.022Z" fill="#FE6801"/>
<path d="M120.331 141.672L80.1528 160.104C79.7501 160.288 79.2868 160.286 78.8859 160.097L40.625 142.08C40.0966 141.831 39.7593 141.299 39.7593 140.713V124.158C39.7593 123.324 40.4335 122.648 41.2653 122.648H79.1849C79.4043 122.648 79.6209 122.696 79.8198 122.789L120.331 141.672Z" fill="#0194FF"/>
<path d="M79.5179 113.59C79.5179 114.424 78.8436 115.1 78.0119 115.1H41.2653C40.4335 115.1 39.7593 114.424 39.7593 113.59V78.312C39.7593 77.7267 40.0966 77.1942 40.625 76.9454L79.5179 58.6305V113.59Z" fill="#01B378"/>
<path d="M159.369 57.8263C159.9 58.0741 160.239 58.608 160.239 59.1951V92.4503C160.239 93.2842 159.565 93.9602 158.733 93.9602H121.836C121.004 93.9602 120.33 93.2842 120.33 92.4503V78.7562C120.33 78.1704 119.992 77.6374 119.463 77.3889L79.5171 58.6289L119.695 39.9005C120.097 39.7127 120.562 39.7129 120.965 39.9008L159.369 57.8263Z" fill="#F8BB06"/>
</svg>
